<?xml version="1.0" encoding="utf-8"?>
<!DOCTYPE svg PUBLIC "-//W3C//DTD SVG 1.1//EN" "http://www.w3.org/Graphics/SVG/1.1/DTD/svg11.dtd">
<svg version="1.1" xmlns="http://www.w3.org/2000/svg" xmlns:xlink="http://www.w3.org/1999/xlink" x="0px" y="0px"
	 viewBox="0 0 141.7 93.7" enable-background="new 0 0 141.7 93.7" xml:space="preserve">
<g>
	<g>
		<path fill="#FFFFFF" d="M88.6,43.8H54.2c-2.3,0-4.1-1.8-4.1-4.1V5.2c0-2.3,1.8-4.1,4.1-4.1h34.4c2.3,0,4.1,1.8,4.1,4.1v34.4
			C92.7,41.9,90.8,43.8,88.6,43.8z M54.2,3.3c-1.1,0-2,0.9-2,2v34.4c0,1.1,0.9,2,2,2h34.4c1.1,0,2-0.9,2-2V5.2c0-1.1-0.9-2-2-2H54.2
			V3.3z"/>
	</g>
	<polygon fill="#FFFFFF" points="66.1,27.7 71.4,17.2 76.6,27.7 	"/>
</g>
<g>
	<g>
		<path fill="#FFFFFF" d="M54.2,48.4h34.4c2.3,0,4.1,1.8,4.1,4.1V87c0,2.3-1.8,4.1-4.1,4.1H54.2c-2.3,0-4.1-1.8-4.1-4.1V52.5
			C50,50.3,51.9,48.4,54.2,48.4z M88.6,88.9c1.1,0,2-0.9,2-2V52.5c0-1.1-0.9-2-2-2H54.2c-1.1,0-2,0.9-2,2V87c0,1.1,0.9,2,2,2h34.4
			V88.9z"/>
	</g>
	<polygon fill="#FFFFFF" points="76.6,64.5 71.4,75 66.1,64.5 	"/>
</g>
<g>
	<g>
		<path fill="#FFFFFF" d="M44.7,52.5V87c0,2.3-1.8,4.1-4.1,4.1H6.2c-2.3,0-4.1-1.8-4.1-4.1V52.5c0-2.3,1.8-4.1,4.1-4.1h34.4
			C42.9,48.4,44.7,50.3,44.7,52.5z M4.2,87c0,1.1,0.9,2,2,2h34.4c1.1,0,2-0.9,2-2V52.5c0-1.1-0.9-2-2-2H6.2c-1.1,0-2,0.9-2,2V87z"/>
	</g>
	<polygon fill="#FFFFFF" points="28.6,75 18.2,69.8 28.6,64.5 	"/>
</g>
<g>
	<g>
		<path fill="#FFFFFF" d="M98,87V52.5c0-2.3,1.8-4.1,4.1-4.1h34.4c2.3,0,4.1,1.8,4.1,4.1V87c0,2.3-1.8,4.1-4.1,4.1h-34.4
			C99.9,91.1,98,89.2,98,87z M138.5,52.5c0-1.1-0.9-2-2-2h-34.4c-1.1,0-2,0.9-2,2V87c0,1.1,0.9,2,2,2h34.4c1.1,0,2-0.9,2-2V52.5z"/>
	</g>
	<polygon fill="#FFFFFF" points="114.1,64.5 124.6,69.8 114.1,75 	"/>
</g>
</svg>
